<svg xmlns="http://www.w3.org/2000/svg" viewBox="0 0 529 529"><path d="M33 265c-18 0-33 14-33 33v66c12-49 51-87 100-99zm132 0c49 12 87 50 100 99v-66c0-19-15-33-33-33zM63 294a33 33 0 1 0 0 66 33 33 0 0 0 0-66zm139 0a33 33 0 1 0 0 66 33 33 0 0 0 0-66zM63 364a33 33 0 1 0 0 66 33 33 0 0 0 0-66zm139 0a33 33 0 1 0 0 66 33 33 0 0 0 0-66zm63 65c-13 50-51 88-100 100h67c18 0 33-15 33-33zM0 429v67c0 18 15 33 33 33h67C51 517 12 479 0 429zm63 4a33 33 0 1 0 0 67 33 33 0 0 0 0-67zm139 0a33 33 0 1 0 0 67 33 33 0 0 0 0-67z" stroke="#000" stroke-width="1"/><path d="M165 0c-18 0-33 15-33 33v67c12-49 51-88 100-100zm132 0c49 12 88 51 100 100V33c0-18-15-33-33-33zm-32 99a33 33 0 1 0 0 66 33 33 0 0 0 0-66zm132 66c-12 49-51 87-100 100h67c18 0 33-15 33-33zm-265 0v67c0 18 15 33 33 33h67c-49-13-88-51-100-100z" stroke="#000" stroke-width="1"/><path d="M298 265c-19 0-33 14-33 33v66c12-49 50-87 99-99zm131 0c50 12 88 50 100 99v-66c0-19-15-33-33-33zm-102 29a33 33 0 1 0 0 66 33 33 0 0 0 0-66zm139 0a33 33 0 1 0 0 66 33 33 0 0 0 0-66zm63 135c-12 50-50 88-100 100h67c18 0 33-15 33-33zm-264 0v67c0 18 14 33 33 33h66c-49-12-87-50-99-100zm62 4a33 33 0 1 0 0 67 33 33 0 0 0 0-67zm139 0a33 33 0 1 0 0 67 33 33 0 0 0 0-67z" stroke="#000" stroke-width="1"/></svg>

